<?xml version="1.0" encoding="utf-8"?>
<!-- Generator: Adobe Illustrator 26.0.1, SVG Export Plug-In . SVG Version: 6.00 Build 0)  -->
<svg version="1.1" id="Layer_1" xmlns="http://www.w3.org/2000/svg" xmlns:xlink="http://www.w3.org/1999/xlink" x="0px" y="0px"
	 viewBox="0 0 100 50" style="enable-background:new 0 0 100 50;" xml:space="preserve">
<style type="text/css">
	.st0{fill:#1678FA;}
</style>
<g>
	<path class="st0" d="M36.5,32.7c-0.3,4.6-2.7,7.3-6.6,7.3c-3.8,0-6.2-3.1-6.2-8.4v-6.1c0-5.2,2.3-8.3,6.2-8.3c3.9,0,6.3,3,6.3,8.3
		V27c0,1.9-1.5,3.4-3.4,3.4h-5.2v1.3c0,2.6,0.8,3.7,2.3,3.7c1.6,0,2.2-0.8,2.5-2.7H36.5z M27.7,25.5V27h4.7v-1.4
		c0-2.5-0.8-3.7-2.4-3.7C28.5,21.8,27.7,23,27.7,25.5z"/>
	<path class="st0" d="M50.6,32.7c-0.3,4.6-2.7,7.3-6.6,7.3c-3.8,0-6.2-3.1-6.2-8.4v-6.1c0-5.2,2.3-8.3,6.2-8.3c3.9,0,6.3,3,6.3,8.3
		V27c0,1.9-1.5,3.4-3.4,3.4h-5.2v1.3c0,2.6,0.8,3.7,2.3,3.7c1.6,0,2.2-0.8,2.5-2.7H50.6z M41.8,25.5V27h4.7v-1.4
		c0-2.5-0.8-3.7-2.4-3.7C42.6,21.8,41.8,23,41.8,25.5z"/>
	<path class="st0" d="M57.3,30.3l-1.1,1.4v8.3h-2.5c-0.9,0-1.6-0.7-1.6-1.6V17.3h4.1v8l4.3-8h4.8L60,26.4l6.1,13.7h-3.4
		c-0.7,0-1.4-0.4-1.7-1.1L57.3,30.3z"/>
	<path d="M90.9,29.6h-2v10.5h-2.3c-1.1,0-2-0.9-2-2V13.6c0-2,1.6-3.6,3.6-3.6h3.1c4.8,0,7.6,3.6,7.6,9.7c0,4.4-1.4,7.5-3.9,8.9
		l4.9,11.4h-3.3c-0.8,0-1.6-0.5-1.9-1.3L90.9,29.6z M88.9,24.5h2.4c2.1,0,3.2-1.7,3.2-4.8c0-3.1-1.1-4.7-3.2-4.7h-1.6
		c-0.4,0-0.8,0.3-0.8,0.8V24.5z"/>
	<g>
		<path d="M75.3,9.9c-4.7,0-7.5,3.7-7.5,9.9v10.4c0,6.2,2.8,9.9,7.5,9.9c0.6,0,1.2-0.1,1.8-0.2c-0.9-1.2-0.8-2.9,0.3-4
			c1.2-1.1,3.1-1,4.2,0.2l0,0c0.8-1.6,1.2-3.5,1.2-5.9V19.8C82.9,13.7,80,9.9,75.3,9.9z M78.5,30.2c0,3.2-1.1,4.9-3.2,4.9
			c-2.1,0-3.2-1.8-3.2-4.9V19.8c0-3.2,1.1-4.9,3.2-4.9c2.1,0,3.2,1.8,3.2,4.9V30.2z"/>
		<path d="M82.7,41.5L82.7,41.5c-0.9,0.8-2.2,0.8-3-0.1L78,39.6c-0.8-0.9-0.8-2.2,0.1-3h0c0.9-0.8,2.2-0.8,3,0.1l1.7,1.8
			C83.6,39.4,83.6,40.7,82.7,41.5z"/>
	</g>
	<g>
		<g>
			<path class="st0" d="M3.8,40.1v-5.3h8.8c2.3,0,4.1-1.8,4.1-4.1c0-1.1-0.4-2.1-1.2-2.9c-0.8-0.8-1.8-1.2-2.9-1.2H9.4
				c-2.5,0-4.8-1-6.6-2.7C1,22.1,0,19.8,0,17.3c0-5.2,4.2-9.4,9.4-9.4h3.5v5.3H9.2c-2.3,0-4.1,1.8-4.1,4.1c0,1.1,0.4,2.1,1.2,2.9
				c0.8,0.8,1.8,1.2,2.9,1.2h3.2c2.5,0,4.8,1,6.6,2.7c1.8,1.8,2.7,4.1,2.7,6.6c0,5.2-4.2,9.4-9.4,9.4H3.8z"/>
		</g>
		<circle class="st0" cx="16.8" cy="10.5" r="2.6"/>
	</g>
</g>
</svg>
